<?xml version="1.0" encoding="utf-8"?>
<!-- Generator: Adobe Illustrator 27.0.0, SVG Export Plug-In . SVG Version: 6.00 Build 0)  -->
<svg version="1.1" id="Layer_1" xmlns="http://www.w3.org/2000/svg" xmlns:xlink="http://www.w3.org/1999/xlink" x="0px" y="0px"
	 viewBox="0 0 592.11 595.28" style="enable-background:new 0 0 592.11 595.28;" xml:space="preserve">
<style type="text/css">
	.st0{fill:#0071CE;}
	.st1{fill:#FFFFFF;}
</style>
<rect class="st0" width="592.11" height="595.28"/>
<g>
	<path class="st1" d="M322.95,269.73v9.73c0,5.81-4.71,10.52-10.52,10.52h-9.73c-5.81,0-10.52-4.71-10.52-10.52v-9.73
		c0-5.81,4.71-10.52,10.52-10.52h9.73C318.23,259.2,322.95,263.92,322.95,269.73z"/>
	<path class="st1" d="M322.95,243.82v4.86c0,5.81-4.71,10.52-10.52,10.52h-9.73c-5.81,0-10.52-4.71-10.52-10.52v-4.86
		c0-8.5,6.89-15.39,15.39-15.39h0C316.06,228.43,322.95,235.32,322.95,243.82z"/>
	<path class="st1" d="M251.19,310.71v4.86c0,8.5-6.89,15.39-15.39,15.39h0c-8.5,0-15.39-6.89-15.39-15.39v-4.86
		c0-5.81,4.71-10.52,10.52-10.52h9.73C246.48,300.18,251.19,304.9,251.19,310.71z"/>
	<path class="st1" d="M435.7,243.82v89.71c0,1.41-1.14,2.55-2.55,2.55h-0.02c-1.41,0-2.55-1.14-2.55-2.55v-89.71
		c0-8.5-6.89-15.39-15.39-15.39h0c-8.5,0-15.39,6.89-15.39,15.39v89.71c0,1.41-1.14,2.55-2.55,2.55l0,0c-1.41,0-2.55-1.14-2.55-2.55
		v-89.71c0-8.5-6.89-15.39-15.39-15.39h-0.02c-8.5,0-15.39,6.89-15.39,15.39v89.71c0,1.41-1.14,2.55-2.55,2.55l0,0
		c-1.41,0-2.55-1.14-2.55-2.55v-89.71c0-8.5-6.89-15.39-15.39-15.39h0c-8.5,0-15.39,6.89-15.39,15.39v89.71
		c0,1.41-1.14,2.55-2.55,2.55h-0.02c-1.41,0-2.55-1.14-2.55-2.55v-33.41c0-5.6-4.54-10.13-10.13-10.13h-10.51
		c-5.6,0-10.13,4.54-10.13,10.13v33.41c0,1.41-1.14,2.55-2.55,2.55h-0.02c-1.41,0-2.55-1.14-2.55-2.55v-89.71
		c0-8.5-6.89-15.39-15.39-15.39H235.8c-8.5,0-15.39,6.89-15.39,15.39v45.84c0,5.81,4.71,10.52,10.52,10.52h9.73
		c5.81,0,10.52-4.71,10.52-10.52v-27.91c0-1.41,1.14-2.55,2.55-2.55l0,0c1.41,0,2.55,1.14,2.55,2.55v58.93
		c0,8.5-6.89,15.39-15.39,15.39h-10.2c-8.5,0-15.39-6.89-15.39-15.39v-76.87c0-8.5-6.89-15.39-15.39-15.39h0
		c-8.5,0-15.39,6.89-15.39,15.39v76.87c0,8.5-6.89,15.39-15.39,15.39h-0.34c-11.13,0-20.16,9.02-20.16,20.16v0
		c0,5.86,4.75,10.62,10.62,10.62h327.72c8.5,0,15.39-6.89,15.39-15.39V243.82c0-8.5-6.89-15.39-15.39-15.39h-35.89
		C442.59,228.43,435.7,235.32,435.7,243.82z M469.02,336.07L469.02,336.07c-1.41,0-2.55-1.14-2.55-2.55v-71.77
		c0-1.41,1.14-2.55,2.55-2.55l0,0c1.41,0,2.55,1.14,2.55,2.55v71.77C471.57,334.93,470.43,336.07,469.02,336.07z"/>
	<path class="st1" d="M112.75,243.82v113.62c0,5.2,4.21,9.41,9.41,9.41h11.97c5.2,0,9.41-4.21,9.41-9.41V357
		c0-14.38,11.66-26.04,26.04-26.04h0c5.43,0,9.83-4.4,9.83-9.83v-77.32c0-8.5-6.89-15.39-15.39-15.39h-35.89
		C119.64,228.43,112.75,235.32,112.75,243.82z M146.09,336.07L146.09,336.07c-1.41,0-2.55-1.14-2.55-2.55v-71.77
		c0-1.41,1.14-2.55,2.55-2.55h0c1.41,0,2.55,1.14,2.55,2.55v71.77C148.64,334.93,147.5,336.07,146.09,336.07z"/>
</g>
</svg>
